<mxfile host="app.diagrams.net" agent="Mozilla/5.0 (Macintosh; Intel Mac OS X 10_15_7) AppleWebKit/537.36 (KHTML, like Gecko) Chrome/131.0.0.0 Safari/537.36" version="24.8.3" pages="2">
  <diagram name="Page-1" id="PtbW-Aun5k6pvKjfOrMi">
    <mxGraphModel dx="2849" dy="1235" grid="1" gridSize="10" guides="1" tooltips="1" connect="1" arrows="1" fold="1" page="1" pageScale="1" pageWidth="827" pageHeight="1169" math="0" shadow="0">
      <root>
        <mxCell id="0" />
        <mxCell id="1" parent="0" />
        <mxCell id="5JOpPQ809kk9evT6bFyk-1" value="" style="rounded=0;whiteSpace=wrap;html=1;" vertex="1" parent="1">
          <mxGeometry x="240" y="160" width="230" height="60" as="geometry" />
        </mxCell>
        <mxCell id="5JOpPQ809kk9evT6bFyk-2" value="MicroBOY MIDI" style="text;html=1;align=left;verticalAlign=middle;whiteSpace=wrap;rounded=0;" vertex="1" parent="1">
          <mxGeometry x="250" y="160" width="210" height="20" as="geometry" />
        </mxCell>
        <mxCell id="5JOpPQ809kk9evT6bFyk-3" value="v0.0.1" style="text;html=1;align=left;verticalAlign=middle;whiteSpace=wrap;rounded=0;" vertex="1" parent="1">
          <mxGeometry x="250" y="180" width="210" height="20" as="geometry" />
        </mxCell>
        <mxCell id="5JOpPQ809kk9evT6bFyk-4" value="rusaaKKMODS 2024" style="text;html=1;align=left;verticalAlign=middle;whiteSpace=wrap;rounded=0;" vertex="1" parent="1">
          <mxGeometry x="250" y="200" width="210" height="20" as="geometry" />
        </mxCell>
        <mxCell id="5JOpPQ809kk9evT6bFyk-5" value="display_splash" style="text;html=1;align=left;verticalAlign=middle;whiteSpace=wrap;rounded=0;fontStyle=1" vertex="1" parent="1">
          <mxGeometry x="240" y="120" width="230" height="40" as="geometry" />
        </mxCell>
        <mxCell id="5JOpPQ809kk9evT6bFyk-6" value="" style="rounded=0;whiteSpace=wrap;html=1;" vertex="1" parent="1">
          <mxGeometry x="240" y="320" width="230" height="60" as="geometry" />
        </mxCell>
        <mxCell id="5JOpPQ809kk9evT6bFyk-7" value="MicroBOY MIDI" style="text;html=1;align=left;verticalAlign=middle;whiteSpace=wrap;rounded=0;" vertex="1" parent="1">
          <mxGeometry x="250" y="320" width="210" height="20" as="geometry" />
        </mxCell>
        <mxCell id="5JOpPQ809kk9evT6bFyk-8" value="&amp;lt;&amp;lt; disconnected &amp;gt;&amp;gt;" style="text;html=1;align=left;verticalAlign=middle;whiteSpace=wrap;rounded=0;" vertex="1" parent="1">
          <mxGeometry x="250" y="340" width="210" height="20" as="geometry" />
        </mxCell>
        <mxCell id="5JOpPQ809kk9evT6bFyk-10" value="display_disconnected" style="text;html=1;align=left;verticalAlign=middle;whiteSpace=wrap;rounded=0;fontStyle=1" vertex="1" parent="1">
          <mxGeometry x="240" y="280" width="230" height="40" as="geometry" />
        </mxCell>
        <mxCell id="5JOpPQ809kk9evT6bFyk-11" value="" style="rounded=0;whiteSpace=wrap;html=1;" vertex="1" parent="1">
          <mxGeometry x="240" y="480" width="230" height="60" as="geometry" />
        </mxCell>
        <mxCell id="5JOpPQ809kk9evT6bFyk-12" value="PU1:[01] PU2:[--]" style="text;html=1;align=left;verticalAlign=middle;whiteSpace=wrap;rounded=0;" vertex="1" parent="1">
          <mxGeometry x="250" y="480" width="210" height="20" as="geometry" />
        </mxCell>
        <mxCell id="5JOpPQ809kk9evT6bFyk-13" value="WAV:[10] NOI:[16]" style="text;html=1;align=left;verticalAlign=middle;whiteSpace=wrap;rounded=0;" vertex="1" parent="1">
          <mxGeometry x="250" y="500" width="210" height="20" as="geometry" />
        </mxCell>
        <mxCell id="5JOpPQ809kk9evT6bFyk-14" value="display_main" style="text;html=1;align=left;verticalAlign=middle;whiteSpace=wrap;rounded=0;fontStyle=1" vertex="1" parent="1">
          <mxGeometry x="240" y="440" width="230" height="40" as="geometry" />
        </mxCell>
        <mxCell id="5JOpPQ809kk9evT6bFyk-15" value="Velocity: 100" style="text;html=1;align=left;verticalAlign=middle;whiteSpace=wrap;rounded=0;" vertex="1" parent="1">
          <mxGeometry x="250" y="520" width="210" height="20" as="geometry" />
        </mxCell>
        <mxCell id="5JOpPQ809kk9evT6bFyk-16" value="" style="rounded=0;whiteSpace=wrap;html=1;" vertex="1" parent="1">
          <mxGeometry x="240" y="640" width="230" height="60" as="geometry" />
        </mxCell>
        <mxCell id="5JOpPQ809kk9evT6bFyk-19" value="display_menu" style="text;html=1;align=left;verticalAlign=middle;whiteSpace=wrap;rounded=0;fontStyle=1" vertex="1" parent="1">
          <mxGeometry x="240" y="600" width="230" height="40" as="geometry" />
        </mxCell>
        <mxCell id="5JOpPQ809kk9evT6bFyk-20" value="&amp;lt;&amp;nbsp; Channels&amp;nbsp; &amp;gt;" style="text;html=1;align=center;verticalAlign=middle;whiteSpace=wrap;rounded=0;fontSize=21;" vertex="1" parent="1">
          <mxGeometry x="250" y="640" width="210" height="60" as="geometry" />
        </mxCell>
        <mxCell id="5JOpPQ809kk9evT6bFyk-23" value="" style="rounded=0;whiteSpace=wrap;html=1;" vertex="1" parent="1">
          <mxGeometry x="480" y="640" width="230" height="60" as="geometry" />
        </mxCell>
        <mxCell id="5JOpPQ809kk9evT6bFyk-24" value="&amp;lt;&amp;nbsp; Config&amp;nbsp; &amp;gt;" style="text;html=1;align=center;verticalAlign=middle;whiteSpace=wrap;rounded=0;fontSize=21;" vertex="1" parent="1">
          <mxGeometry x="490" y="640" width="210" height="60" as="geometry" />
        </mxCell>
        <mxCell id="5JOpPQ809kk9evT6bFyk-25" value="link connected&lt;div&gt;or&lt;br&gt;&lt;div&gt;gameboy on&lt;/div&gt;&lt;/div&gt;" style="shape=step;perimeter=stepPerimeter;whiteSpace=wrap;html=1;fixedSize=1;" vertex="1" parent="1">
          <mxGeometry x="120" y="390" width="220" height="50" as="geometry" />
        </mxCell>
        <mxCell id="5JOpPQ809kk9evT6bFyk-26" value="click shift&lt;div&gt;click again back to main display&lt;/div&gt;" style="shape=step;perimeter=stepPerimeter;whiteSpace=wrap;html=1;fixedSize=1;" vertex="1" parent="1">
          <mxGeometry x="120" y="560" width="220" height="40" as="geometry" />
        </mxCell>
        <mxCell id="5JOpPQ809kk9evT6bFyk-27" value="" style="rounded=0;whiteSpace=wrap;html=1;" vertex="1" parent="1">
          <mxGeometry y="640" width="230" height="60" as="geometry" />
        </mxCell>
        <mxCell id="5JOpPQ809kk9evT6bFyk-28" value="&amp;lt;&amp;nbsp; Reader&amp;nbsp; &amp;gt;" style="text;html=1;align=center;verticalAlign=middle;whiteSpace=wrap;rounded=0;fontSize=21;" vertex="1" parent="1">
          <mxGeometry x="10" y="640" width="210" height="60" as="geometry" />
        </mxCell>
        <mxCell id="5JOpPQ809kk9evT6bFyk-29" value="rotate rotary will update global velocity" style="shape=step;perimeter=stepPerimeter;whiteSpace=wrap;html=1;fixedSize=1;flipH=1;" vertex="1" parent="1">
          <mxGeometry x="520" y="480" width="270" height="60" as="geometry" />
        </mxCell>
        <mxCell id="5JOpPQ809kk9evT6bFyk-30" value="rotate rotary will navigate menu" style="shape=step;perimeter=stepPerimeter;whiteSpace=wrap;html=1;fixedSize=1;flipH=1;" vertex="1" parent="1">
          <mxGeometry x="760" y="640" width="270" height="60" as="geometry" />
        </mxCell>
        <mxCell id="5JOpPQ809kk9evT6bFyk-32" value="" style="rounded=0;whiteSpace=wrap;html=1;" vertex="1" parent="1">
          <mxGeometry x="240" y="800" width="230" height="60" as="geometry" />
        </mxCell>
        <mxCell id="5JOpPQ809kk9evT6bFyk-34" value="click rotary enter the menu mode" style="shape=step;perimeter=stepPerimeter;whiteSpace=wrap;html=1;fixedSize=1;flipH=1;" vertex="1" parent="1">
          <mxGeometry x="360" y="720" width="270" height="60" as="geometry" />
        </mxCell>
        <mxCell id="5JOpPQ809kk9evT6bFyk-35" value="click rotary will mute global velocity,&lt;div&gt;click again will restore global velocity&lt;/div&gt;&lt;div&gt;(to previous state)&lt;/div&gt;" style="shape=step;perimeter=stepPerimeter;whiteSpace=wrap;html=1;fixedSize=1;flipH=1;" vertex="1" parent="1">
          <mxGeometry x="790" y="480" width="270" height="60" as="geometry" />
        </mxCell>
        <mxCell id="5JOpPQ809kk9evT6bFyk-36" value="control bypassed until connected" style="shape=step;perimeter=stepPerimeter;whiteSpace=wrap;html=1;fixedSize=1;flipH=1;" vertex="1" parent="1">
          <mxGeometry x="500" y="320" width="220" height="60" as="geometry" />
        </mxCell>
        <mxCell id="5JOpPQ809kk9evT6bFyk-37" value="&amp;lt;&amp;nbsp; &amp;nbsp;PU1 Channel&amp;nbsp; &amp;nbsp;&amp;gt;" style="text;html=1;align=center;verticalAlign=middle;whiteSpace=wrap;rounded=0;" vertex="1" parent="1">
          <mxGeometry x="250" y="800" width="210" height="30" as="geometry" />
        </mxCell>
        <mxCell id="5JOpPQ809kk9evT6bFyk-38" value="- [01] +" style="text;html=1;align=center;verticalAlign=middle;whiteSpace=wrap;rounded=0;fontSize=27;" vertex="1" parent="1">
          <mxGeometry x="250" y="820" width="210" height="40" as="geometry" />
        </mxCell>
        <mxCell id="5JOpPQ809kk9evT6bFyk-42" value="" style="rounded=0;whiteSpace=wrap;html=1;" vertex="1" parent="1">
          <mxGeometry x="490" y="800" width="230" height="60" as="geometry" />
        </mxCell>
        <mxCell id="5JOpPQ809kk9evT6bFyk-43" value="&amp;lt;&amp;nbsp; &amp;nbsp;PU2 Channel&amp;nbsp; &amp;nbsp;&amp;gt;" style="text;html=1;align=center;verticalAlign=middle;whiteSpace=wrap;rounded=0;" vertex="1" parent="1">
          <mxGeometry x="500" y="800" width="210" height="30" as="geometry" />
        </mxCell>
        <mxCell id="5JOpPQ809kk9evT6bFyk-44" value="- [02] +" style="text;html=1;align=center;verticalAlign=middle;whiteSpace=wrap;rounded=0;fontSize=27;" vertex="1" parent="1">
          <mxGeometry x="500" y="820" width="210" height="40" as="geometry" />
        </mxCell>
        <mxCell id="5JOpPQ809kk9evT6bFyk-45" value="" style="rounded=0;whiteSpace=wrap;html=1;" vertex="1" parent="1">
          <mxGeometry y="800" width="230" height="60" as="geometry" />
        </mxCell>
        <mxCell id="5JOpPQ809kk9evT6bFyk-46" value="&amp;lt;&amp;nbsp; &amp;nbsp;NOI Channel&amp;nbsp; &amp;nbsp;&amp;gt;" style="text;html=1;align=center;verticalAlign=middle;whiteSpace=wrap;rounded=0;" vertex="1" parent="1">
          <mxGeometry x="10" y="800" width="210" height="30" as="geometry" />
        </mxCell>
        <mxCell id="5JOpPQ809kk9evT6bFyk-47" value="- [04] +" style="text;html=1;align=center;verticalAlign=middle;whiteSpace=wrap;rounded=0;fontSize=27;" vertex="1" parent="1">
          <mxGeometry x="10" y="820" width="210" height="40" as="geometry" />
        </mxCell>
        <mxCell id="5JOpPQ809kk9evT6bFyk-48" value="" style="rounded=0;whiteSpace=wrap;html=1;" vertex="1" parent="1">
          <mxGeometry x="730" y="800" width="230" height="60" as="geometry" />
        </mxCell>
        <mxCell id="5JOpPQ809kk9evT6bFyk-49" value="&amp;lt;&amp;nbsp; &amp;nbsp;WAV Channel&amp;nbsp; &amp;nbsp;&amp;gt;" style="text;html=1;align=center;verticalAlign=middle;whiteSpace=wrap;rounded=0;" vertex="1" parent="1">
          <mxGeometry x="740" y="800" width="210" height="30" as="geometry" />
        </mxCell>
        <mxCell id="5JOpPQ809kk9evT6bFyk-50" value="- [10] +" style="text;html=1;align=center;verticalAlign=middle;whiteSpace=wrap;rounded=0;fontSize=27;" vertex="1" parent="1">
          <mxGeometry x="740" y="820" width="210" height="40" as="geometry" />
        </mxCell>
        <mxCell id="5JOpPQ809kk9evT6bFyk-51" value="" style="endArrow=classic;html=1;rounded=0;" edge="1" parent="1">
          <mxGeometry width="50" height="50" relative="1" as="geometry">
            <mxPoint x="350" y="710" as="sourcePoint" />
            <mxPoint x="350" y="790" as="targetPoint" />
          </mxGeometry>
        </mxCell>
        <mxCell id="5JOpPQ809kk9evT6bFyk-52" value="rotate rotary will navigate menu" style="shape=step;perimeter=stepPerimeter;whiteSpace=wrap;html=1;fixedSize=1;flipH=1;" vertex="1" parent="1">
          <mxGeometry x="971" y="800" width="270" height="60" as="geometry" />
        </mxCell>
        <mxCell id="5JOpPQ809kk9evT6bFyk-53" value="" style="rounded=0;whiteSpace=wrap;html=1;" vertex="1" parent="1">
          <mxGeometry x="240" y="960" width="230" height="60" as="geometry" />
        </mxCell>
        <mxCell id="5JOpPQ809kk9evT6bFyk-54" value="&amp;lt;&amp;nbsp; &amp;nbsp;PU1 Channel&amp;nbsp; &amp;nbsp;&amp;gt;" style="text;html=1;align=center;verticalAlign=middle;whiteSpace=wrap;rounded=0;" vertex="1" parent="1">
          <mxGeometry x="250" y="960" width="210" height="30" as="geometry" />
        </mxCell>
        <mxCell id="5JOpPQ809kk9evT6bFyk-55" value="- [03] +" style="text;html=1;align=center;verticalAlign=middle;whiteSpace=wrap;rounded=0;fontSize=27;" vertex="1" parent="1">
          <mxGeometry x="250" y="980" width="210" height="40" as="geometry" />
        </mxCell>
        <mxCell id="5JOpPQ809kk9evT6bFyk-56" value="" style="endArrow=classic;html=1;rounded=0;" edge="1" parent="1">
          <mxGeometry width="50" height="50" relative="1" as="geometry">
            <mxPoint x="354.5" y="870" as="sourcePoint" />
            <mxPoint x="354.5" y="950" as="targetPoint" />
          </mxGeometry>
        </mxCell>
        <mxCell id="5JOpPQ809kk9evT6bFyk-57" value="click shift" style="shape=step;perimeter=stepPerimeter;whiteSpace=wrap;html=1;fixedSize=1;" vertex="1" parent="1">
          <mxGeometry x="100" y="880" width="220" height="60" as="geometry" />
        </mxCell>
        <mxCell id="5JOpPQ809kk9evT6bFyk-58" value="rotate rotary will update value" style="shape=step;perimeter=stepPerimeter;whiteSpace=wrap;html=1;fixedSize=1;flipH=1;" vertex="1" parent="1">
          <mxGeometry x="380" y="880" width="270" height="60" as="geometry" />
        </mxCell>
        <mxCell id="5JOpPQ809kk9evT6bFyk-60" value="click rotary will back to previous menu" style="shape=step;perimeter=stepPerimeter;whiteSpace=wrap;html=1;fixedSize=1;flipH=1;direction=north;" vertex="1" parent="1">
          <mxGeometry x="-110" y="705" width="60" height="270" as="geometry" />
        </mxCell>
        <mxCell id="5JOpPQ809kk9evT6bFyk-61" value="" style="rounded=0;whiteSpace=wrap;html=1;" vertex="1" parent="1">
          <mxGeometry x="240" y="1169" width="230" height="60" as="geometry" />
        </mxCell>
        <mxCell id="5JOpPQ809kk9evT6bFyk-62" value="&amp;lt;&amp;nbsp; Reader&amp;nbsp; &amp;gt;" style="text;html=1;align=center;verticalAlign=middle;whiteSpace=wrap;rounded=0;fontSize=21;" vertex="1" parent="1">
          <mxGeometry x="250" y="1169" width="210" height="60" as="geometry" />
        </mxCell>
        <mxCell id="5JOpPQ809kk9evT6bFyk-63" value="click rotary enter the menu mode" style="shape=step;perimeter=stepPerimeter;whiteSpace=wrap;html=1;fixedSize=1;flipH=1;" vertex="1" parent="1">
          <mxGeometry x="370" y="1250" width="270" height="60" as="geometry" />
        </mxCell>
        <mxCell id="5JOpPQ809kk9evT6bFyk-64" value="" style="endArrow=classic;html=1;rounded=0;" edge="1" parent="1">
          <mxGeometry width="50" height="50" relative="1" as="geometry">
            <mxPoint x="360" y="1240" as="sourcePoint" />
            <mxPoint x="360" y="1320" as="targetPoint" />
          </mxGeometry>
        </mxCell>
        <mxCell id="5JOpPQ809kk9evT6bFyk-65" value="" style="rounded=0;whiteSpace=wrap;html=1;" vertex="1" parent="1">
          <mxGeometry x="240" y="1340" width="230" height="60" as="geometry" />
        </mxCell>
        <mxCell id="5JOpPQ809kk9evT6bFyk-66" value="&amp;lt;&amp;nbsp; &amp;nbsp;Control Change&amp;nbsp; &amp;nbsp;&amp;gt;" style="text;html=1;align=center;verticalAlign=middle;whiteSpace=wrap;rounded=0;" vertex="1" parent="1">
          <mxGeometry x="250" y="1340" width="210" height="30" as="geometry" />
        </mxCell>
        <mxCell id="5JOpPQ809kk9evT6bFyk-67" value="&amp;lt; ON &amp;gt;" style="text;html=1;align=center;verticalAlign=middle;whiteSpace=wrap;rounded=0;fontSize=27;" vertex="1" parent="1">
          <mxGeometry x="250" y="1360" width="210" height="40" as="geometry" />
        </mxCell>
        <mxCell id="5JOpPQ809kk9evT6bFyk-68" value="" style="rounded=0;whiteSpace=wrap;html=1;" vertex="1" parent="1">
          <mxGeometry x="490" y="1340" width="230" height="60" as="geometry" />
        </mxCell>
        <mxCell id="5JOpPQ809kk9evT6bFyk-69" value="&amp;lt;&amp;nbsp; &amp;nbsp;Program Change&amp;nbsp; &amp;nbsp;&amp;gt;" style="text;html=1;align=center;verticalAlign=middle;whiteSpace=wrap;rounded=0;" vertex="1" parent="1">
          <mxGeometry x="500" y="1340" width="210" height="30" as="geometry" />
        </mxCell>
        <mxCell id="5JOpPQ809kk9evT6bFyk-70" value="&amp;lt; OFF &amp;gt;" style="text;html=1;align=center;verticalAlign=middle;whiteSpace=wrap;rounded=0;fontSize=27;" vertex="1" parent="1">
          <mxGeometry x="500" y="1360" width="210" height="40" as="geometry" />
        </mxCell>
        <mxCell id="5JOpPQ809kk9evT6bFyk-71" value="" style="rounded=0;whiteSpace=wrap;html=1;" vertex="1" parent="1">
          <mxGeometry x="971" y="1340" width="230" height="60" as="geometry" />
        </mxCell>
        <mxCell id="5JOpPQ809kk9evT6bFyk-72" value="&amp;lt;&amp;nbsp; &amp;nbsp;Clock&amp;nbsp; &amp;nbsp;&amp;gt;" style="text;html=1;align=center;verticalAlign=middle;whiteSpace=wrap;rounded=0;" vertex="1" parent="1">
          <mxGeometry x="981" y="1340" width="210" height="30" as="geometry" />
        </mxCell>
        <mxCell id="5JOpPQ809kk9evT6bFyk-73" value="&amp;lt; ON &amp;gt;" style="text;html=1;align=center;verticalAlign=middle;whiteSpace=wrap;rounded=0;fontSize=27;" vertex="1" parent="1">
          <mxGeometry x="981" y="1360" width="210" height="40" as="geometry" />
        </mxCell>
        <mxCell id="5JOpPQ809kk9evT6bFyk-74" value="" style="rounded=0;whiteSpace=wrap;html=1;" vertex="1" parent="1">
          <mxGeometry x="730" y="1340" width="230" height="60" as="geometry" />
        </mxCell>
        <mxCell id="5JOpPQ809kk9evT6bFyk-75" value="&amp;lt;&amp;nbsp; &amp;nbsp;Realtime&amp;nbsp; &amp;nbsp;&amp;gt;" style="text;html=1;align=center;verticalAlign=middle;whiteSpace=wrap;rounded=0;" vertex="1" parent="1">
          <mxGeometry x="740" y="1340" width="210" height="30" as="geometry" />
        </mxCell>
        <mxCell id="5JOpPQ809kk9evT6bFyk-76" value="&amp;lt; ON &amp;gt;" style="text;html=1;align=center;verticalAlign=middle;whiteSpace=wrap;rounded=0;fontSize=27;" vertex="1" parent="1">
          <mxGeometry x="740" y="1360" width="210" height="40" as="geometry" />
        </mxCell>
        <mxCell id="5JOpPQ809kk9evT6bFyk-78" value="" style="rounded=0;whiteSpace=wrap;html=1;" vertex="1" parent="1">
          <mxGeometry x="1210" y="1340" width="230" height="60" as="geometry" />
        </mxCell>
        <mxCell id="5JOpPQ809kk9evT6bFyk-79" value="&amp;lt;&amp;nbsp; &amp;nbsp;Exp. Correction&amp;nbsp; &amp;nbsp;&amp;gt;" style="text;html=1;align=center;verticalAlign=middle;whiteSpace=wrap;rounded=0;" vertex="1" parent="1">
          <mxGeometry x="1220" y="1340" width="210" height="30" as="geometry" />
        </mxCell>
        <mxCell id="5JOpPQ809kk9evT6bFyk-80" value="&amp;lt; ON &amp;gt;" style="text;html=1;align=center;verticalAlign=middle;whiteSpace=wrap;rounded=0;fontSize=27;" vertex="1" parent="1">
          <mxGeometry x="1220" y="1360" width="210" height="40" as="geometry" />
        </mxCell>
        <mxCell id="5JOpPQ809kk9evT6bFyk-81" value="rotate rotary will navigate menu" style="shape=step;perimeter=stepPerimeter;whiteSpace=wrap;html=1;fixedSize=1;flipH=1;" vertex="1" parent="1">
          <mxGeometry x="1201" y="1229" width="270" height="60" as="geometry" />
        </mxCell>
        <mxCell id="5JOpPQ809kk9evT6bFyk-82" value="" style="rounded=0;whiteSpace=wrap;html=1;" vertex="1" parent="1">
          <mxGeometry x="250" y="1500" width="230" height="60" as="geometry" />
        </mxCell>
        <mxCell id="5JOpPQ809kk9evT6bFyk-83" value="&amp;lt;&amp;nbsp; &amp;nbsp;Control Change&amp;nbsp; &amp;nbsp;&amp;gt;" style="text;html=1;align=center;verticalAlign=middle;whiteSpace=wrap;rounded=0;" vertex="1" parent="1">
          <mxGeometry x="260" y="1500" width="210" height="30" as="geometry" />
        </mxCell>
        <mxCell id="5JOpPQ809kk9evT6bFyk-84" value="&amp;lt; OFF &amp;gt;" style="text;html=1;align=center;verticalAlign=middle;whiteSpace=wrap;rounded=0;fontSize=27;" vertex="1" parent="1">
          <mxGeometry x="260" y="1520" width="210" height="40" as="geometry" />
        </mxCell>
        <mxCell id="5JOpPQ809kk9evT6bFyk-85" value="" style="endArrow=classic;html=1;rounded=0;" edge="1" parent="1">
          <mxGeometry width="50" height="50" relative="1" as="geometry">
            <mxPoint x="364.5" y="1410" as="sourcePoint" />
            <mxPoint x="364.5" y="1490" as="targetPoint" />
          </mxGeometry>
        </mxCell>
        <mxCell id="5JOpPQ809kk9evT6bFyk-86" value="click shift" style="shape=step;perimeter=stepPerimeter;whiteSpace=wrap;html=1;fixedSize=1;" vertex="1" parent="1">
          <mxGeometry x="110" y="1420" width="220" height="60" as="geometry" />
        </mxCell>
        <mxCell id="5JOpPQ809kk9evT6bFyk-87" value="rotate rotary will update value" style="shape=step;perimeter=stepPerimeter;whiteSpace=wrap;html=1;fixedSize=1;flipH=1;" vertex="1" parent="1">
          <mxGeometry x="390" y="1420" width="270" height="60" as="geometry" />
        </mxCell>
        <mxCell id="5JOpPQ809kk9evT6bFyk-88" value="click rotary will back to previous menu" style="shape=step;perimeter=stepPerimeter;whiteSpace=wrap;html=1;fixedSize=1;flipH=1;direction=north;" vertex="1" parent="1">
          <mxGeometry x="10" y="1270" width="60" height="270" as="geometry" />
        </mxCell>
        <mxCell id="5JOpPQ809kk9evT6bFyk-89" value="" style="endArrow=classic;html=1;rounded=0;" edge="1" parent="1">
          <mxGeometry width="50" height="50" relative="1" as="geometry">
            <mxPoint x="354.5" y="550" as="sourcePoint" />
            <mxPoint x="354.5" y="630" as="targetPoint" />
          </mxGeometry>
        </mxCell>
        <mxCell id="5JOpPQ809kk9evT6bFyk-90" value="" style="endArrow=classic;html=1;rounded=0;" edge="1" parent="1">
          <mxGeometry width="50" height="50" relative="1" as="geometry">
            <mxPoint x="350" y="390" as="sourcePoint" />
            <mxPoint x="350" y="470" as="targetPoint" />
          </mxGeometry>
        </mxCell>
        <mxCell id="5JOpPQ809kk9evT6bFyk-91" value="" style="endArrow=classic;html=1;rounded=0;" edge="1" parent="1">
          <mxGeometry width="50" height="50" relative="1" as="geometry">
            <mxPoint x="390" y="230" as="sourcePoint" />
            <mxPoint x="390" y="310" as="targetPoint" />
          </mxGeometry>
        </mxCell>
        <mxCell id="oOkp35nEFP4ATC4hlkST-4" value="" style="rounded=0;whiteSpace=wrap;html=1;" vertex="1" parent="1">
          <mxGeometry x="1450" y="1340" width="230" height="60" as="geometry" />
        </mxCell>
        <mxCell id="oOkp35nEFP4ATC4hlkST-5" value="&amp;lt;&amp;nbsp; &amp;nbsp;Byte Delay&amp;nbsp; us&amp;nbsp; &amp;gt;" style="text;html=1;align=center;verticalAlign=middle;whiteSpace=wrap;rounded=0;" vertex="1" parent="1">
          <mxGeometry x="1460" y="1340" width="210" height="30" as="geometry" />
        </mxCell>
        <mxCell id="oOkp35nEFP4ATC4hlkST-6" value="- 3600 +" style="text;html=1;align=center;verticalAlign=middle;whiteSpace=wrap;rounded=0;fontSize=27;" vertex="1" parent="1">
          <mxGeometry x="1460" y="1360" width="210" height="40" as="geometry" />
        </mxCell>
      </root>
    </mxGraphModel>
  </diagram>
  <diagram id="cKASlxFHW7FNhQI-cWyw" name="Page-2">
    <mxGraphModel dx="1546" dy="945" grid="1" gridSize="10" guides="1" tooltips="1" connect="1" arrows="1" fold="1" page="1" pageScale="1" pageWidth="827" pageHeight="1169" math="0" shadow="0">
      <root>
        <mxCell id="0" />
        <mxCell id="1" parent="0" />
      </root>
    </mxGraphModel>
  </diagram>
</mxfile>
